<svg xmlns="http://www.w3.org/2000/svg" xmlns:xlink="http://www.w3.org/1999/xlink" width="100" zoomAndPan="magnify" viewBox="0 0 116.88 129.000003" height="100
" preserveAspectRatio="xMidYMid meet" version="1.0">
	<defs>
		<g />
		<clipPath id="23a29ac0b0">
			<path d="M 0.390625 0 L 116.371094 0 L 116.371094 128.007812 L 0.390625 128.007812 Z M 0.390625 0 " clip-rule="nonzero" />
		</clipPath>
		<clipPath id="5a0387c4ff">
			<path d="M 12.644531 19.695312 L 104.238281 19.695312 L 104.238281 111.289062 L 12.644531 111.289062 Z M 12.644531 19.695312 " clip-rule="nonzero" />
		</clipPath>
		<clipPath id="5a49ea6aee">
			<path d="M 58.441406 19.695312 C 33.148438 19.695312 12.644531 40.199219 12.644531 65.492188 C 12.644531 90.785156 33.148438 111.289062 58.441406 111.289062 C 83.734375 111.289062 104.238281 90.785156 104.238281 65.492188 C 104.238281 40.199219 83.734375 19.695312 58.441406 19.695312 Z M 58.441406 19.695312 " clip-rule="nonzero" />
		</clipPath>
	</defs>
	<g clip-path="url(#23a29ac0b0)">
		<path fill="#ffffff" d="M 0.390625 0 L 116.488281 0 L 116.488281 128.007812 L 0.390625 128.007812 Z M 0.390625 0 " fill-opacity="1" fill-rule="nonzero" />
	</g>
	<g clip-path="url(#5a0387c4ff)">
		<g clip-path="url(#5a49ea6aee)">
			<path fill="#00a99f" d="M 12.644531 19.695312 L 104.238281 19.695312 L 104.238281 111.289062 L 12.644531 111.289062 Z M 12.644531 19.695312 " fill-opacity="1" fill-rule="nonzero" />
		</g>
	</g>
	<g fill="#000000" fill-opacity="1">
		<g transform="translate(40.989007, 78.368504)">
			<g>
				<path d="M 27.289062 30.140625 C 27.574219 30.425781 27.800781 30.542969 28.03125 30.542969 C 28.257812 30.542969 28.429688 30.484375 28.714844 30.257812 C 29.113281 29.914062 29.113281 29.800781 29.171875 26.601562 C 29.34375 13.242188 31.113281 -14.441406 32.425781 -25.0625 C 33.222656 -30.996094 33.28125 -31.339844 34.59375 -33.964844 C 35.851562 -36.421875 36.59375 -38.417969 36.820312 -39.5625 C 37.050781 -40.761719 36.363281 -41.84375 35.394531 -41.84375 C 35.28125 -41.84375 35.109375 -41.84375 34.992188 -41.789062 C 33.796875 -41.5 32.480469 -38.988281 31.570312 -35.164062 C 31.285156 -33.851562 30.882812 -32.539062 30.710938 -32.195312 C 30.199219 -31.113281 26.660156 -25.804688 24.546875 -23.007812 C 21.179688 -18.496094 18.554688 -15.242188 12.332031 -7.933594 C 12.046875 -7.59375 11.816406 -7.421875 11.703125 -7.535156 C 11.589844 -7.765625 11.875 -18.4375 12.160156 -21.636719 C 12.902344 -31.285156 14.726562 -42.1875 15.757812 -43.042969 C 16.042969 -43.328125 16.097656 -44.355469 15.757812 -44.640625 C 15.640625 -44.757812 15.300781 -44.871094 15.015625 -44.871094 C 14.671875 -44.871094 14.273438 -44.757812 14.042969 -44.585938 C 13.53125 -44.242188 13.015625 -42.816406 12.214844 -39.617188 C 10.277344 -31.511719 9.304688 -22.378906 9.078125 -10.445312 L 9.019531 -4.222656 L 8.277344 -3.367188 C 7.820312 -2.910156 5.652344 -0.628906 3.425781 1.769531 C -2.226562 7.765625 -2.398438 7.933594 -2.398438 9.078125 C -2.398438 9.589844 -2.285156 9.875 -1.882812 10.160156 C -1.597656 10.390625 -1.371094 10.503906 -0.855469 10.503906 C -0.285156 10.503906 0.683594 10.332031 2.511719 9.933594 C 4.28125 9.535156 6.449219 9.304688 8.050781 9.304688 C 8.621094 9.304688 9.078125 9.363281 9.476562 9.417969 L 10.390625 9.589844 L 10.902344 11.53125 C 11.703125 14.671875 12.730469 16.328125 14.042969 16.554688 C 14.214844 16.554688 14.328125 16.613281 14.5 16.613281 C 15.585938 16.613281 16.441406 15.8125 16.839844 14.5 C 17.355469 12.84375 16.898438 11.074219 15.699219 9.703125 C 15.242188 9.132812 13.414062 7.765625 12.84375 7.59375 C 12.617188 7.535156 12.214844 4.339844 11.929688 0.0585938 L 11.761719 -3.367188 L 13.128906 -4.964844 C 18.210938 -10.789062 24.832031 -19.011719 28.144531 -23.632812 C 29.058594 -24.890625 29.855469 -25.917969 29.855469 -25.917969 C 29.914062 -25.859375 29.800781 -24.945312 29.683594 -23.863281 C 29.058594 -18.609375 28.257812 -8.507812 27.574219 2.796875 C 26.886719 14.785156 26.773438 17.527344 26.773438 23.578125 L 26.773438 29.683594 Z M 14.441406 12.730469 C 14.558594 13.242188 14.558594 13.644531 14.386719 13.644531 C 14.386719 13.644531 14.328125 13.585938 14.273438 13.53125 C 14.042969 13.1875 13.414062 11.246094 13.53125 11.1875 C 13.644531 11.019531 14.328125 12.101562 14.441406 12.730469 Z M 1.941406 7.421875 C 1.542969 7.535156 2.738281 6.164062 6.507812 2.226562 C 8.335938 0.34375 9.191406 -0.457031 9.246094 -0.226562 C 9.304688 -0.113281 9.476562 1.257812 9.535156 2.796875 C 9.703125 4.28125 9.820312 5.824219 9.875 6.164062 L 9.988281 6.851562 L 8.277344 6.792969 C 6.109375 6.792969 4.054688 6.90625 1.941406 7.421875 Z M 1.941406 7.421875 " />
			</g>
		</g>
	</g>
</svg>
