<svg data-name="Layer 1" xmlns="http://www.w3.org/2000/svg" viewBox="0 0 22.32 16.996"><path d="M39.96 25.422a.474.474 0 0 1 .494.494v1.007a.473.473 0 0 1-.494.494h-8.454v5.688q.276-.098.563-.187.286-.088.563-.188a6.06 6.06 0 0 1-.217-1.085 3.879 3.879 0 0 1 .04-1.107 2.957 2.957 0 0 1 .77-1.54 3.825 3.825 0 0 1 1.441-.969 3.345 3.345 0 0 1 1.798-.177 2.49 2.49 0 0 1 .84.276 2.272 2.272 0 0 1 .68.554 2.412 2.412 0 0 1 .633 1.678 3.024 3.024 0 0 1-.573 1.699 5.021 5.021 0 0 1-1.057 1.087 7.813 7.813 0 0 1-1.294.79q.217.375.435.74.217.365.474.721c.026.04.056.082.089.128l.089.13a.577.577 0 0 1 .098.117c.014.014.033.037.06.07.026.033.026.036 0 .01.065.092.131.177.197.256s.132.165.198.257q.138.177.267.365.128.188.227.366c.052.092.102.181.148.266a1.336 1.336 0 0 1 .109.267 1.389 1.389 0 0 1 .04.336 2.703 2.703 0 0 1-.02.336 3.916 3.916 0 0 1-.179.879 2.813 2.813 0 0 1-.414.8 3.57 3.57 0 0 1-.633.662 2.401 2.401 0 0 1-.81.424 2.227 2.227 0 0 1-1.737-.158 2.695 2.695 0 0 1-.702-.553 2.753 2.753 0 0 1-.484-.731 2.544 2.544 0 0 1-.237-.968 1.792 1.792 0 0 1 .04-.533 1.05 1.05 0 0 1 .257-.474 1.213 1.213 0 0 1 .493-.306.993.993 0 0 1 .573-.01 1.015 1.015 0 0 1 .494.267 1.243 1.243 0 0 1 .316.484.575.575 0 0 1 .04.217 1.44 1.44 0 0 0 .02.237v.06a.056.056 0 0 1 .02.039.054.054 0 0 0 .019.039.077.077 0 0 0 .02.06v.019a.283.283 0 0 0 .059.079l.02.04.039.039h.02l.02.02h.078c.027 0 .04-.006.04-.02h.04c.012-.013.023-.02.03-.02.006 0 .015-.006.029-.019 0-.014.006-.02.02-.02a.111.111 0 0 0 .049-.04.139.139 0 0 1 .03-.039l.039-.079a.23.23 0 0 1 .03-.05.235.235 0 0 0 .03-.048c.012-.014.019-.024.019-.03a.057.057 0 0 1 .02-.03.294.294 0 0 1 .04-.118.313.313 0 0 1 .01-.08.337.337 0 0 0 .009-.078v-.04a.217.217 0 0 0 .02-.099.22.22 0 0 0-.02-.099.084.084 0 0 0-.02-.06v-.019a11.79 11.79 0 0 0-.148-.286 1.491 1.491 0 0 0-.168-.247 1.237 1.237 0 0 0-.128-.178 1.276 1.276 0 0 1-.129-.177.308.308 0 0 1-.059-.08l-.02-.019a1.698 1.698 0 0 0-.079-.11 1.638 1.638 0 0 0-.079-.088q-.158-.217-.325-.435-.169-.217-.326-.434-.218-.296-.435-.613c-.145-.21-.283-.427-.415-.651q-.514.158-1.017.326c-.336.111-.675.22-1.017.325v2.45c0 .263-.004.54-.01.83a.932.932 0 0 1-.326.71 1.09 1.09 0 0 1-.87.257 1.063 1.063 0 0 1-.829-.415.933.933 0 0 1-.168-.404 3.043 3.043 0 0 1-.03-.425V36.09q-.75.354-1.47.72-.722.367-1.453.721l-1.53.751q-.761.375-1.532.751c-.158.078-.322.164-.493.256a2.01 2.01 0 0 1-.534.198 1.312 1.312 0 0 1-.553.04 1.087 1.087 0 0 1-.494-.198 1.168 1.168 0 0 1-.246-.237.776.776 0 0 1-.149-.296.833.833 0 0 1 .06-.593 1.01 1.01 0 0 1 .276-.365q.178-.148.356-.286.138-.08.256-.158.12-.08.257-.159.514-.237 1.017-.484.504-.246 1.018-.483.888-.435 1.778-.86.888-.425 1.777-.879.415-.197.83-.385t.83-.405l-.02-.02a.082.082 0 0 0-.01-.049.04.04 0 0 1-.01-.03 1.34 1.34 0 0 1-.06-.158.053.053 0 0 1-.019-.03c0-.006-.007-.015-.02-.03q-.138-.314-.296-.602a4.32 4.32 0 0 0-.375-.562.114.114 0 0 1-.04-.08.521.521 0 0 1-.098-.118l-.12-.119a.753.753 0 0 1-.098-.118l-.237-.237a3.408 3.408 0 0 0-.237-.217 1.13 1.13 0 0 1-.158-.138c-.013 0-.033-.013-.06-.04a1.1 1.1 0 0 0-.128-.109 1.205 1.205 0 0 0-.148-.089c-.105-.065-.214-.13-.326-.197a5.824 5.824 0 0 0-.325-.178.465.465 0 0 0-.218-.098.136.136 0 0 0-.099-.04 4.251 4.251 0 0 0-.187-.07 3.128 3.128 0 0 1-.188-.068 1.126 1.126 0 0 0-.207-.06c-.073-.012-.142-.026-.208-.039a.335.335 0 0 0-.108-.02.187.187 0 0 1-.09-.02h-.118a2.425 2.425 0 0 0-.434-.039h-.435a.387.387 0 0 1-.119.02.387.387 0 0 0-.118.02h-.158a1.79 1.79 0 0 1-.188.029.734.734 0 0 0-.187.05 1.116 1.116 0 0 1-.208.059 1.099 1.099 0 0 0-.207.059l-.178.06a.35.35 0 0 0-.099.04q-.198.097-.375.187a2.113 2.113 0 0 0-.336.207.46.46 0 0 0-.118.079l-.02.02a.596.596 0 0 0-.119.098 2.406 2.406 0 0 0-.256.257.457.457 0 0 0-.08.098l-.039.04a.444.444 0 0 0-.06.099.598.598 0 0 0-.098.128 1.372 1.372 0 0 0-.079.168.116.116 0 0 0-.04.079l-.058.178a1.68 1.68 0 0 0-.07.217.776.776 0 0 1-.089.217.97.97 0 0 1-.404.425 1.325 1.325 0 0 1-.563.168 1.18 1.18 0 0 1-.968-.474.947.947 0 0 1-.198-.503 1.312 1.312 0 0 1 .08-.543 4.828 4.828 0 0 1 .335-.78 4.335 4.335 0 0 1 .474-.702 5.094 5.094 0 0 1 1.264-1.106 6.143 6.143 0 0 1 1.52-.702 6.725 6.725 0 0 1 1.66-.286 7.7 7.7 0 0 1 1.403.05 7.06 7.06 0 0 1 1.383.316 7.25 7.25 0 0 1 1.274.572 5.724 5.724 0 0 1 1.116.84v-2.43H18.627a.473.473 0 0 1-.494-.494v-1.007a.474.474 0 0 1 .494-.494h10.647v-.178a1.843 1.843 0 0 1 .089-.425.925.925 0 0 1 .227-.365 1.31 1.31 0 0 1 .79-.276 1.435 1.435 0 0 1 .434.069.928.928 0 0 1 .376.227 1.074 1.074 0 0 1 .316.79v.158h8.454Zm-5.175 6.281c.013.053.023.103.03.149a.74.74 0 0 0 .049.168c.066-.04.138-.08.217-.119a2.242 2.242 0 0 0 .237-.138c.066-.04.132-.08.198-.118a1.868 1.868 0 0 0 .197-.14l.02-.019a.424.424 0 0 0 .099-.079l.158-.158a.514.514 0 0 0 .108-.099.516.516 0 0 1 .11-.098.298.298 0 0 1 .058-.08.055.055 0 0 1 .02-.038.27.27 0 0 0 .06-.09.646.646 0 0 1 .058-.109.306.306 0 0 0 .05-.079c.02-.039.023-.051.01-.039a.319.319 0 0 0 .059-.197.386.386 0 0 1 .01-.07.443.443 0 0 0 .01-.088v-.02c-.014 0-.02-.013-.02-.04v-.02a.055.055 0 0 1-.02-.029c0-.006-.006-.016-.02-.03l-.02-.02-.039-.038c-.04-.04-.066-.06-.079-.06a.018.018 0 0 0-.02-.02.08.08 0 0 0-.059-.02v-.02a.132.132 0 0 1-.059-.01.135.135 0 0 0-.06-.01h-.315a.132.132 0 0 0-.06.01.136.136 0 0 1-.06.01l-.177.06a.059.059 0 0 1-.04.02.057.057 0 0 0-.038.019l-.179.12h-.02l-.058.058a.967.967 0 0 1-.139.119.309.309 0 0 1-.059.079.17.17 0 0 0-.05.089.176.176 0 0 1-.049.089c-.013.012-.02.022-.02.029s-.006.017-.02.03a.082.082 0 0 0-.02.059 1.216 1.216 0 0 0-.078.276v.336a.94.94 0 0 0 .02.218v.157Zm.474-1.52q-.04.04-.04.029c0-.006.013-.017.04-.03Zm.118 8.75c.013.013.023.02.03.02.007 0-.004-.007-.03-.02Zm.91-8.968c.025.014.039.016.039.01s-.014-.01-.04-.01Zm.236.237.02.04Z" transform="translate(-18.133 -24.178)" style="fill:#00a19a"/></svg>