<svg width="41" height="41" viewBox="0 0 41 41" fill="none" xmlns="http://www.w3.org/2000/svg">
<path fill-rule="evenodd" clip-rule="evenodd" d="M8.64071 3.84696C7.21005 4.84732 5.91635 6.03008 4.7933 7.3615C9.3826 6.93543 15.2131 7.63114 21.9823 11.0158C29.2109 14.63 35.0317 14.7522 39.0827 13.9708C38.7151 12.8579 38.2523 11.7883 37.7042 10.7715C33.0669 11.2606 27.1219 10.6132 20.1935 7.14908C15.7939 4.94928 11.9157 4.0431 8.64071 3.84696ZM34.9953 6.91574C31.3332 2.82409 26.0113 0.2491 20.0879 0.2491C18.3484 0.2491 16.6606 0.471207 15.0516 0.88858C17.2308 1.48318 19.5458 2.35308 21.9823 3.57136C27.0549 6.10762 31.4343 6.92425 34.9953 6.91574ZM39.9488 17.8772C35.0548 18.8436 28.2967 18.6451 20.1935 14.5935C12.6179 10.8057 6.58841 10.8534 2.52188 11.7571C2.31198 11.8037 2.10702 11.8527 1.90701 11.9037C1.3746 13.0616 0.949616 14.2792 0.644684 15.5436C0.970368 15.4566 1.30691 15.3739 1.65414 15.2967C6.58755 14.2004 13.558 14.248 21.9823 18.4602C29.558 22.248 35.5875 22.2003 39.6541 21.2966C39.7934 21.2657 39.9307 21.2337 40.0657 21.2007C40.0805 20.8854 40.0879 20.5681 40.0879 20.2491C40.0879 19.4466 40.0407 18.6551 39.9488 17.8772ZM39.4127 25.4214C34.5662 26.2687 28.0049 25.9435 20.1935 22.0379C12.6179 18.2501 6.58841 18.2978 2.52188 19.2015C1.61923 19.402 0.807221 19.6463 0.0909122 19.9042C0.0889592 20.0189 0.0879822 20.1339 0.0879822 20.2491C0.0879822 31.2948 9.04227 40.2491 20.0879 40.2491C29.345 40.2491 37.1332 33.96 39.4127 25.4214Z" fill="#00AAA1"/>
</svg>
