<svg xmlns="http://www.w3.org/2000/svg" xmlns:xlink="http://www.w3.org/1999/xlink" width="00"  viewBox="0 0 300 300" height="200" preserveAspectRatio="xMidYMid meet" version="1.0">
	<defs>
		<g />
		<clipPath id="9097496a54">
			<path d="M 141.347656 141.347656 L 233.652344 141.347656 L 233.652344 233.652344 L 141.347656 233.652344 Z M 141.347656 141.347656 " clip-rule="nonzero" />
		</clipPath>
		<clipPath id="760816cd3c">
			<path d="M 187.5 141.347656 C 162.011719 141.347656 141.347656 162.011719 141.347656 187.5 C 141.347656 212.988281 162.011719 233.652344 187.5 233.652344 C 212.988281 233.652344 233.652344 212.988281 233.652344 187.5 C 233.652344 162.011719 212.988281 141.347656 187.5 141.347656 Z M 187.5 141.347656 " clip-rule="nonzero" />
		</clipPath>
	</defs>
	<g clip-path="url(#9097496a54)">
		<g clip-path="url(#760816cd3c)">
			<path fill="#00a99f" d="M 141.347656 141.347656 L 233.652344 141.347656 L 233.652344 233.652344 L 141.347656 233.652344 Z M 141.347656 141.347656 " fill-opacity="1" fill-rule="nonzero" />
		</g>
	</g>
	<g fill="#000000" fill-opacity="1">
		<g transform="translate(169.913716, 200.47598)">
			<g>
				<path d="M 27.5 30.375 C 27.785156 30.664062 28.015625 30.777344 28.246094 30.777344 C 28.476562 30.777344 28.648438 30.71875 28.9375 30.492188 C 29.339844 30.144531 29.339844 30.03125 29.398438 26.808594 C 29.570312 13.347656 31.351562 -14.554688 32.675781 -25.253906 C 33.480469 -31.238281 33.539062 -31.582031 34.863281 -34.230469 C 36.128906 -36.703125 36.875 -38.71875 37.105469 -39.867188 C 37.335938 -41.074219 36.644531 -42.167969 35.667969 -42.167969 C 35.554688 -42.167969 35.378906 -42.167969 35.265625 -42.109375 C 34.058594 -41.824219 32.734375 -39.292969 31.8125 -35.4375 C 31.527344 -34.113281 31.125 -32.792969 30.949219 -32.445312 C 30.433594 -31.351562 26.867188 -26.003906 24.738281 -23.183594 C 21.34375 -18.640625 18.695312 -15.359375 12.425781 -7.996094 C 12.136719 -7.652344 11.910156 -7.480469 11.792969 -7.59375 C 11.679688 -7.824219 11.964844 -18.582031 12.253906 -21.804688 C 13 -31.527344 14.84375 -42.515625 15.878906 -43.375 C 16.164062 -43.664062 16.222656 -44.699219 15.878906 -44.988281 C 15.761719 -45.101562 15.417969 -45.21875 15.128906 -45.21875 C 14.785156 -45.21875 14.382812 -45.101562 14.152344 -44.929688 C 13.632812 -44.585938 13.117188 -43.148438 12.3125 -39.925781 C 10.355469 -31.757812 9.378906 -22.550781 9.148438 -10.527344 L 9.089844 -4.257812 L 8.339844 -3.394531 C 7.882812 -2.933594 5.695312 -0.632812 3.453125 1.785156 C -2.242188 7.824219 -2.417969 7.996094 -2.417969 9.148438 C -2.417969 9.664062 -2.300781 9.953125 -1.898438 10.238281 C -1.609375 10.46875 -1.378906 10.585938 -0.863281 10.585938 C -0.289062 10.585938 0.691406 10.414062 2.53125 10.011719 C 4.316406 9.605469 6.5 9.378906 8.113281 9.378906 C 8.6875 9.378906 9.148438 9.433594 9.550781 9.492188 L 10.46875 9.664062 L 10.988281 11.621094 C 11.792969 14.785156 12.828125 16.453125 14.152344 16.683594 C 14.324219 16.683594 14.441406 16.742188 14.613281 16.742188 C 15.707031 16.742188 16.570312 15.9375 16.972656 14.613281 C 17.488281 12.945312 17.027344 11.160156 15.820312 9.78125 C 15.359375 9.203125 13.519531 7.824219 12.945312 7.652344 C 12.714844 7.59375 12.3125 4.371094 12.023438 0.0585938 L 11.851562 -3.394531 L 13.230469 -5.003906 C 18.351562 -10.871094 25.023438 -19.15625 28.363281 -23.816406 C 29.28125 -25.082031 30.085938 -26.117188 30.085938 -26.117188 C 30.144531 -26.0625 30.03125 -25.140625 29.914062 -24.046875 C 29.28125 -18.753906 28.476562 -8.570312 27.785156 2.820312 C 27.097656 14.898438 26.980469 17.660156 26.980469 23.757812 L 26.980469 29.914062 Z M 14.554688 12.828125 C 14.667969 13.347656 14.667969 13.75 14.496094 13.75 C 14.496094 13.75 14.441406 13.691406 14.382812 13.632812 C 14.152344 13.289062 13.519531 11.332031 13.632812 11.277344 C 13.75 11.101562 14.441406 12.195312 14.554688 12.828125 Z M 1.957031 7.480469 C 1.554688 7.59375 2.761719 6.214844 6.558594 2.242188 C 8.398438 0.34375 9.261719 -0.460938 9.320312 -0.230469 C 9.378906 -0.113281 9.550781 1.265625 9.605469 2.820312 C 9.78125 4.316406 9.894531 5.867188 9.953125 6.214844 L 10.066406 6.902344 L 8.339844 6.847656 C 6.15625 6.847656 4.085938 6.960938 1.957031 7.480469 Z M 1.957031 7.480469 " />
			</g>
		</g>
	</g>
</svg>
