<svg id="Layer_1" data-name="Layer 1" xmlns="http://www.w3.org/2000/svg" viewBox="0 0 58.59 44.61"><defs><style>.cls-1{fill:#1d71b8;}</style></defs><path class="cls-1" d="M60.66,9.56a1.26,1.26,0,0,1,.93.36,1.29,1.29,0,0,1,.37.94V13.5a1.26,1.26,0,0,1-1.3,1.3H38.47V29.73c.48-.17,1-.34,1.48-.49s1-.32,1.47-.5a17.12,17.12,0,0,1-.57-2.85A10.09,10.09,0,0,1,41,23a7.73,7.73,0,0,1,2-4,10.1,10.1,0,0,1,3.78-2.54,8.82,8.82,0,0,1,4.72-.46,6.44,6.44,0,0,1,2.21.72,6,6,0,0,1,1.78,1.45,6.3,6.3,0,0,1,1.66,4.41A7.88,7.88,0,0,1,55.63,27a13.16,13.16,0,0,1-2.77,2.85,20.62,20.62,0,0,1-3.4,2.08l1.14,1.94c.38.64.8,1.27,1.25,1.89a2.92,2.92,0,0,0,.23.34l.23.34a1.15,1.15,0,0,1,.26.31,1.07,1.07,0,0,1,.16.18c.07.09.07.09,0,0a7.58,7.58,0,0,0,.52.68c.17.21.34.43.51.67s.48.63.7,1a10.6,10.6,0,0,1,.6,1c.14.24.27.48.39.7a3.79,3.79,0,0,1,.28.7,3.6,3.6,0,0,1,.11.88,8,8,0,0,1-.05.88,10.41,10.41,0,0,1-.47,2.31,7.38,7.38,0,0,1-1.09,2.1,9.14,9.14,0,0,1-1.66,1.74,6.23,6.23,0,0,1-2.12,1.11,5.84,5.84,0,0,1-4.57-.41A7.37,7.37,0,0,1,44,48.76a7.45,7.45,0,0,1-1.27-1.92,6.63,6.63,0,0,1-.62-2.54,5,5,0,0,1,.1-1.4,2.81,2.81,0,0,1,.68-1.25,3.14,3.14,0,0,1,1.29-.8,2.67,2.67,0,0,1,1.51,0,2.73,2.73,0,0,1,1.29.7,3.3,3.3,0,0,1,.83,1.27,1.56,1.56,0,0,1,.11.57A3.35,3.35,0,0,0,48,44v.15a.18.18,0,0,1,.05.11.19.19,0,0,0,0,.1.21.21,0,0,0,0,.15v.06a.94.94,0,0,0,.16.2l0,.11.11.1h.05l0,.05h.21c.07,0,.1,0,.1-.05H49s.06,0,.08,0,0,0,.08-.05,0,0,.05,0a.3.3,0,0,0,.13-.11.35.35,0,0,1,.08-.1l.1-.21a.79.79,0,0,1,.08-.13.79.79,0,0,0,.08-.13.15.15,0,0,0,0-.08.18.18,0,0,1,.05-.07.85.85,0,0,1,.11-.32.71.71,0,0,1,0-.2.76.76,0,0,0,0-.21v-.1a.67.67,0,0,0,0-.26.63.63,0,0,0,0-.26.25.25,0,0,0,0-.16v0q-.21-.42-.39-.75a4.64,4.64,0,0,0-.44-.65,4.37,4.37,0,0,0-.34-.47,3.43,3.43,0,0,1-.34-.46.69.69,0,0,1-.15-.21l-.06,0c-.07-.11-.13-.2-.2-.29l-.21-.23c-.28-.38-.56-.76-.86-1.14S46.31,37.42,46,37,45.28,36,44.9,35.43s-.75-1.12-1.09-1.71c-.9.28-1.79.56-2.67.86s-1.77.58-2.67.85v6.43c0,.69,0,1.42,0,2.18a2.44,2.44,0,0,1-.85,1.86,2.87,2.87,0,0,1-2.28.68,2.78,2.78,0,0,1-2.18-1.09,2.48,2.48,0,0,1-.44-1.06,8.32,8.32,0,0,1-.08-1.12V37.56c-1.31.62-2.6,1.25-3.86,1.89s-2.54,1.27-3.81,1.89l-4,2c-1.33.66-2.67,1.32-4,2-.41.21-.85.43-1.3.68a5.12,5.12,0,0,1-1.4.51,3.39,3.39,0,0,1-1.45.11,2.82,2.82,0,0,1-1.29-.52,2.94,2.94,0,0,1-.65-.62,2,2,0,0,1-.39-.78,2.2,2.2,0,0,1,.15-1.56,2.66,2.66,0,0,1,.73-1l.93-.76a7.19,7.19,0,0,0,.68-.41c.21-.14.43-.28.67-.42.9-.41,1.79-.83,2.67-1.27S18,38.44,18.92,38c1.56-.76,3.11-1.51,4.67-2.25s3.11-1.51,4.67-2.31l2.17-1c.73-.33,1.45-.68,2.18-1.06l0-.05c0-.07,0-.12,0-.13a.11.11,0,0,1,0-.08,2.92,2.92,0,0,1-.16-.42.15.15,0,0,1-.05-.08.18.18,0,0,0,0-.07A16.59,16.59,0,0,0,31.47,29a11.23,11.23,0,0,0-1-1.48.29.29,0,0,1-.1-.21,1.65,1.65,0,0,1-.26-.31l-.31-.31a2.38,2.38,0,0,1-.26-.31l-.62-.62c-.21-.21-.42-.4-.62-.57a2.38,2.38,0,0,1-.42-.37s-.08,0-.15-.1a3.07,3.07,0,0,0-.34-.29,3.64,3.64,0,0,0-.39-.23l-.86-.52c-.29-.17-.57-.33-.85-.46a1.14,1.14,0,0,0-.57-.26.36.36,0,0,0-.26-.11L24,22.65l-.49-.18a3.47,3.47,0,0,0-.55-.16l-.54-.1a1.1,1.1,0,0,0-.29-.05.56.56,0,0,1-.23-.05h-.31A6.29,6.29,0,0,0,20.43,22H19.29a.89.89,0,0,1-.32.05.89.89,0,0,0-.31.06h-.41c-.18,0-.34.06-.49.07a2.64,2.64,0,0,0-.5.13,2.41,2.41,0,0,1-.54.16,2.66,2.66,0,0,0-.55.16l-.46.15a1.17,1.17,0,0,0-.26.1l-1,.5a5.33,5.33,0,0,0-.88.54,1.18,1.18,0,0,0-.31.21l0,.05a1.32,1.32,0,0,0-.31.26,7.17,7.17,0,0,0-.68.67,1.13,1.13,0,0,0-.2.26l-.11.11a1.36,1.36,0,0,0-.15.26,1.35,1.35,0,0,0-.26.33,3.67,3.67,0,0,0-.21.44.29.29,0,0,0-.1.21l-.16.47a3.83,3.83,0,0,0-.18.57,2.2,2.2,0,0,1-.23.57,2.61,2.61,0,0,1-1.07,1.11,3.39,3.39,0,0,1-1.47.44,3.08,3.08,0,0,1-2.54-1.24A2.41,2.41,0,0,1,5,27.32a3.42,3.42,0,0,1,.2-1.43,13.49,13.49,0,0,1,.89-2.05A11.42,11.42,0,0,1,7.36,22a13.21,13.21,0,0,1,3.32-2.9,15.72,15.72,0,0,1,4-1.84A17.86,17.86,0,0,1,19,16.51a19.83,19.83,0,0,1,3.68.13,18,18,0,0,1,3.63.83A18.61,18.61,0,0,1,29.68,19a15.49,15.49,0,0,1,2.93,2.2V14.8H4.66a1.25,1.25,0,0,1-1.29-1.3V10.86a1.28,1.28,0,0,1,.36-.94,1.26,1.26,0,0,1,.93-.36h28V9.09A4.66,4.66,0,0,1,32.84,8a2.43,2.43,0,0,1,.6-1,3.48,3.48,0,0,1,2.07-.73,3.77,3.77,0,0,1,1.14.18,2.51,2.51,0,0,1,1,.6,2.83,2.83,0,0,1,.83,2.07v.42H60.66ZM47.08,26.05a2.92,2.92,0,0,1,.07.39,2.24,2.24,0,0,0,.13.44c.18-.11.37-.21.57-.31a6.88,6.88,0,0,0,.63-.37l.51-.31a3.46,3.46,0,0,0,.52-.36l.05-.05a1.32,1.32,0,0,0,.26-.21l.42-.42a1,1,0,0,0,.28-.26,1.37,1.37,0,0,1,.29-.25.69.69,0,0,1,.15-.21A.15.15,0,0,1,51,24a.61.61,0,0,0,.15-.23,2.14,2.14,0,0,1,.16-.28l.13-.21c0-.1.06-.14,0-.1a.83.83,0,0,0,.16-.52s0-.1,0-.18a1.12,1.12,0,0,0,0-.24v-.05s0,0,0-.1v-.06a.11.11,0,0,1,0-.07s0-.05-.06-.08l-.05,0-.1-.11q-.15-.15-.21-.15s0-.05-.05-.05a.21.21,0,0,0-.16-.06v-.05l-.15,0a.35.35,0,0,0-.16,0h-.83a.28.28,0,0,0-.15,0l-.16,0-.46.16a.18.18,0,0,1-.11.05.16.16,0,0,0-.1.05l-.47.31h0l-.16.16a2.23,2.23,0,0,1-.36.31.91.91,0,0,1-.15.21.39.39,0,0,0-.13.23.45.45,0,0,1-.13.23s-.06.06-.06.08,0,0,0,.08a.23.23,0,0,0-.05.15,3.36,3.36,0,0,0-.21.73v.88a2.16,2.16,0,0,0,.06.57v.42Zm1.24-4c-.07.07-.1.1-.1.08S48.25,22.09,48.32,22.05Zm.31,23s.06,0,.08,0S48.7,45.06,48.63,45ZM51,21.48c.06,0,.1.05.1,0S51.08,21.48,51,21.48Zm.62.63,0,.1Z" transform="translate(-3.37 -6.29)"/></svg>