<svg xmlns="http://www.w3.org/2000/svg" version="1.1" xmlns:xlink="http://www.w3.org/1999/xlink" xmlns:svgjs="http://svgjs.dev/svgjs" viewBox="0 0 800 800"><g transform="matrix(1,0,0,1,0,0)"><circle r="6.5" cx="684" cy="684" stroke-width="4" stroke="#ff3895" fill="none" opacity="0.1" transform="rotate(95, 400, 400)"></circle><circle r="24.9" cx="655.1" cy="655.6" stroke-width="4.55" stroke="#f447a3" fill="none" opacity="0.19" transform="rotate(83, 400, 400)"></circle><circle r="43.3" cx="626.2" cy="627.2" stroke-width="5.1" stroke="#e954af" fill="none" opacity="0.28" transform="rotate(71, 400, 400)"></circle><circle r="61.699999999999996" cx="597.3" cy="598.8" stroke-width="5.65" stroke="#dd5fbb" fill="none" opacity="0.37" transform="rotate(59, 400, 400)"></circle><circle r="80.1" cx="568.4" cy="570.4" stroke-width="6.2" stroke="#d169c6" fill="none" opacity="0.45999999999999996" transform="rotate(47, 400, 400)"></circle><circle r="98.5" cx="539.5" cy="542" stroke-width="6.75" stroke="#c472d1" fill="none" opacity="0.5499999999999999" transform="rotate(35, 400, 400)"></circle><circle r="116.89999999999999" cx="510.6" cy="513.6" stroke-width="7.300000000000001" stroke="#b57adb" fill="none" opacity="0.64" transform="rotate(23, 400, 400)"></circle><circle r="135.29999999999998" cx="481.70000000000005" cy="485.20000000000005" stroke-width="7.8500000000000005" stroke="#a682e4" fill="none" opacity="0.73" transform="rotate(11, 400, 400)"></circle><circle r="153.7" cx="452.8" cy="456.8" stroke-width="8.4" stroke="#9589ee" fill="none" opacity="0.82" transform="rotate(-1, 400, 400)"></circle><circle r="172.1" cx="423.90000000000003" cy="428.4" stroke-width="8.95" stroke="#8290f6" fill="none" opacity="0.9099999999999999" transform="rotate(-13, 400, 400)"></circle><circle r="190.5" cx="395" cy="400" stroke-width="9.5" stroke="#6b97ff" fill="none" opacity="0.9999999999999999" transform="rotate(-25, 400, 400)"></circle></g></svg>